<?xml version="1.0" standalone="no"?>
<!DOCTYPE svg PUBLIC "-//W3C//DTD SVG 20010904//EN"
 "http://www.w3.org/TR/2001/REC-SVG-20010904/DTD/svg10.dtd">
<svg version="1.0" xmlns="http://www.w3.org/2000/svg"
 width="300.000000pt" height="300.000000pt" viewBox="0 0 300.000000 300.000000"
 preserveAspectRatio="xMidYMid meet">
<metadata>
Created by potrace 1.14, written by Peter Selinger 2001-2017
</metadata>
<g transform="translate(0.000000,300.000000) scale(0.100000,-0.100000)"
fill="#000000" stroke="none">
<path d="M1390 2893 c-565 -55 -1039 -426 -1208 -943 -51 -156 -66 -255 -66
-440 0 -237 37 -410 128 -597 192 -395 550 -671 989 -765 136 -28 378 -30 517
-4 571 110 1011 548 1116 1111 25 133 25 382 1 510 -105 536 -497 951 -1032
1090 -139 36 -317 51 -445 38z m7 -64 c9 -9 6 -20 -11 -43 -40 -53 -40 -55 -2
-49 28 4 36 1 46 -17 6 -12 10 -31 7 -41 -12 -45 48 -32 68 14 l14 32 1 -28
c0 -31 -47 -87 -74 -87 -28 0 -46 30 -46 76 0 24 -5 44 -10 44 -23 0 -60 -50
-66 -89 -7 -41 -29 -56 -40 -26 -6 14 85 224 97 225 3 0 10 -5 16 -11z m327
-10 c14 -20 13 -26 -9 -70 -14 -26 -26 -63 -27 -81 -3 -32 -2 -33 39 -36 34
-3 47 2 77 29 41 35 46 31 15 -13 -40 -56 -126 -72 -149 -28 -15 28 -12 61 10
126 12 32 19 67 16 77 -6 24 10 21 28 -4z m126 -44 c0 -15 -21 -12 -30 5 -11
20 -10 21 9 10 12 -6 21 -13 21 -15z m-40 -5 c11 -7 12 -12 3 -21 -8 -8 -14
-6 -22 10 -12 22 -5 27 19 11z m-717 -19 c3 -14 11 -17 31 -14 30 6 33 -3 10
-28 -14 -16 -14 -20 0 -48 23 -44 20 -67 -14 -103 l-31 -33 17 37 c15 31 16
44 5 77 -11 38 -13 40 -49 35 l-37 -5 28 16 c31 18 33 24 12 51 -19 26 -19 34
4 34 10 0 21 -8 24 -19z m-115 -43 c7 -7 12 -38 12 -69 0 -63 15 -86 27 -42
l7 28 7 -30 c3 -16 10 -38 14 -48 6 -16 4 -18 -15 -15 -34 5 -60 47 -69 109
-4 30 -10 60 -15 67 -9 16 16 16 32 0z m1042 -62 c-16 -16 -12 -24 12 -28 37
-5 34 -29 -3 -26 -42 4 -50 -20 -20 -58 12 -15 21 -31 21 -35 0 -16 -25 -9
-37 10 -8 13 -19 18 -33 14 -25 -7 -61 23 -53 44 4 10 14 13 33 9 25 -5 29 -1
44 37 9 24 16 49 16 56 0 11 3 11 15 1 11 -9 13 -16 5 -24z m310 -108 c0 -19
-15 -24 -25 -8 -3 6 -16 10 -28 10 -16 0 -18 3 -9 12 7 7 12 21 12 32 0 18 1
18 25 -4 14 -13 25 -32 25 -42z m-670 -3 c147 -22 280 -74 420 -163 63 -40
176 -136 190 -161 13 -24 -25 -192 -47 -208 -26 -20 -61 -15 -85 10 l-23 22
23 3 c12 2 22 7 22 11 0 25 -24 121 -30 121 -5 0 -22 -16 -39 -35 -84 -96 10
-238 134 -204 46 13 80 60 95 132 6 31 15 57 20 57 5 0 25 -26 44 -59 210
-345 212 -759 5 -1093 -65 -106 -145 -197 -235 -268 -79 -63 -235 -147 -334
-180 -61 -20 -241 -52 -249 -45 -2 2 17 46 42 97 45 93 97 232 97 262 0 9 29
47 65 84 168 175 266 362 356 681 16 58 29 116 29 129 0 41 -27 62 -77 62
l-45 0 7 49 c6 42 4 52 -14 70 -20 20 -31 21 -238 20 -120 0 -261 -6 -313 -13
-93 -12 -98 -12 -255 21 -88 19 -245 52 -350 74 -104 22 -207 39 -227 37 -21
-2 -38 -1 -38 3 0 16 99 140 162 202 74 73 162 134 273 189 105 53 194 79 345
102 60 8 182 5 270 -9z m-959 -24 c16 -46 45 -94 62 -105 26 -16 67 31 74 83
7 50 23 36 23 -21 0 -44 -41 -98 -74 -98 -31 0 -49 16 -91 85 -21 33 -44 66
-53 73 -14 10 -11 12 17 12 26 0 34 -5 42 -29z m1534 9 c37 0 69 -32 62 -62
-11 -42 -46 -78 -75 -78 -36 0 -72 10 -72 20 0 5 8 6 19 3 27 -7 73 20 93 55
21 35 16 42 -27 35 -36 -6 -51 8 -40 35 5 12 9 13 12 5 3 -7 15 -13 28 -13z
m-1631 -641 c14 -48 26 -92 26 -98 0 -6 -39 -50 -86 -98 l-87 -88 7 50 c15
106 92 344 107 327 3 -4 18 -46 33 -93z m346 -14 c102 -20 191 -38 199 -41 8
-3 -25 -24 -77 -50 l-92 -45 -97 16 c-53 9 -98 17 -99 18 -1 1 -9 27 -19 57
-10 30 -20 61 -23 68 -6 17 0 16 208 -23z m712 -103 c54 -50 42 -134 -22 -167
-59 -30 -115 -13 -145 45 -19 37 -19 63 1 101 31 61 113 71 166 21z m214 -51
c-8 -58 5 -71 73 -71 23 0 41 -1 41 -3 0 -1 -18 -57 -40 -125 -106 -330 -273
-537 -605 -755 -98 -64 -293 -167 -316 -167 -23 0 -135 69 -201 124 -63 52
-178 180 -178 198 0 4 17 1 38 -6 71 -25 174 -39 246 -33 72 6 161 31 172 49
3 5 -2 28 -12 50 -14 32 -22 38 -38 33 -106 -30 -179 -27 -324 17 -67 19 -72
23 -56 35 31 22 193 70 335 99 74 15 139 32 146 38 6 6 13 29 15 51 l3 40 -60
-3 c-156 -8 -364 -54 -495 -111 -49 -21 -92 -36 -95 -33 -3 3 -5 13 -5 22 0
30 174 95 345 130 73 15 70 13 194 101 78 55 113 87 153 142 61 85 68 91 133
116 92 35 92 34 100 4 25 -100 148 -145 233 -84 38 26 66 94 57 138 -6 36 -1
39 80 46 22 2 46 4 54 5 11 2 12 -9 7 -47z m-1008 -6 c28 -4 52 -11 52 -16 0
-5 -3 -9 -7 -9 -5 0 -35 -21 -68 -46 -57 -43 -62 -45 -110 -39 -27 3 -52 8
-54 11 -10 9 104 114 119 110 8 -3 39 -8 68 -11z m-146 -152 c14 -3 7 -14 -35
-53 -44 -42 -58 -49 -93 -50 -22 0 -44 3 -47 6 -3 4 14 31 40 61 48 56 56 58
135 36z m-143 -150 c8 -6 -92 -102 -101 -97 -15 9 -8 56 12 85 18 24 26 27 53
22 18 -3 34 -8 36 -10z m910 -757 c-18 -36 -38 -66 -45 -66 -18 0 -29 71 -12
81 7 4 28 19 47 33 19 14 36 24 39 22 2 -3 -11 -34 -29 -70z m-184 -133 c7
-25 3 -26 -44 -17 -38 8 -39 19 -3 38 29 16 36 13 47 -21z"/>
<path d="M1922 2558 c3 -7 13 -15 24 -17 16 -3 17 -1 5 13 -16 19 -34 21 -29
4z"/>
<path d="M1564 1760 c-27 -11 -54 -48 -54 -75 0 -27 33 -63 65 -71 52 -13 101
46 83 98 -15 44 -55 64 -94 48z m54 -33 c4 -20 -25 -34 -40 -19 -15 15 -1 44
19 40 10 -2 19 -11 21 -21z"/>
<path d="M1272 1468 c8 -122 101 -259 215 -314 58 -29 57 -29 67 2 5 18 -1 26
-37 47 -90 53 -177 181 -193 284 -5 38 -9 43 -31 43 -25 0 -25 -1 -21 -62z"/>
</g>
</svg>
